<?xml version="1.0" encoding="UTF-8" standalone="no"?>
<svg viewBox="0 0 50 50"
 xmlns="http://www.w3.org/2000/svg" xmlns:xlink="http://www.w3.org/1999/xlink" version="1.2" baseProfile="tiny">
<title>Qt SVG Document</title>
<desc>Generated with Qt</desc>
<defs>
<radialGradient gradientUnits="userSpaceOnUse" cx="15.9821" cy="16.8386" r="16.3929" fx="15.9821" fy="16.8386" id="gradient1">
    <stop offset="0" stop-color="#fc6e6e" stop-opacity="1" />
    <stop offset="0.298541" stop-color="#f55a5b" stop-opacity="1" />
    <stop offset="0.694613" stop-color="#da2e31" stop-opacity="1" />
    <stop offset="0.922408" stop-color="#871718" stop-opacity="0.878431" />
    <stop offset="1" stop-color="#000000" stop-opacity="0.756756" />
</radialGradient>
</defs>
<g fill="none" stroke="black" stroke-width="1" fill-rule="evenodd" stroke-linecap="square" stroke-linejoin="bevel" >

<g fill="#000000" fill-opacity="1" stroke="none" transform="matrix(2.27273,0,0,2.27273,-373.114,-317.488)"
font-family="Noto Sans" font-size="10" font-weight="400" font-style="normal" 
opacity="0.00100002" >
<rect x="164.17" y="139.695" width="22" height="22"/>
</g>

<g fill="url(#gradient1)" stroke="none" transform="matrix(2.27273,0,0,2.27273,-373.114,-317.488)"
font-family="Noto Sans" font-size="10" font-weight="400" font-style="normal" 
>
<circle cx="175.17" cy="150.695" r="10"/>
</g>

<g fill="#000000" fill-opacity="1" stroke="none" transform="matrix(2.27273,0,0,2.27273,-373.114,-317.488)"
font-family="Noto Sans" font-size="10" font-weight="400" font-style="normal" 
>
<path vector-effect="none" fill-rule="nonzero" d="M178.667,153.717 L176.394,151.444 L178.666,149.172 C179.004,148.834 179.004,148.286 178.666,147.948 C178.328,147.61 177.78,147.61 177.443,147.948 L175.17,150.221 L172.897,147.948 C172.56,147.61 172.012,147.61 171.674,147.948 C171.336,148.286 171.336,148.834 171.674,149.172 L173.946,151.444 L171.674,153.717 C171.336,154.055 171.336,154.603 171.674,154.941 C171.843,155.11 172.064,155.195 172.286,155.195 C172.507,155.195 172.729,155.109 172.897,154.941 L175.17,152.668 L177.443,154.941 C177.612,155.11 177.834,155.195 178.055,155.195 C178.276,155.195 178.498,155.109 178.667,154.941 C179.005,154.603 179.005,154.055 178.667,153.717 L178.667,153.717"/>
</g>

<g fill="none" stroke="#000000" stroke-opacity="1" stroke-width="1" stroke-linecap="square" stroke-linejoin="bevel" transform="matrix(1,0,0,1,0,0)"
font-family="Noto Sans" font-size="10" font-weight="400" font-style="normal" 
>
</g>
</g>
</svg>
