<?xml version="1.0" encoding="UTF-8" standalone="no"?>
<svg viewBox="0 0 50 50"
 xmlns="http://www.w3.org/2000/svg" xmlns:xlink="http://www.w3.org/1999/xlink" version="1.2" baseProfile="tiny">
<title>Qt SVG Document</title>
<desc>Generated with Qt</desc>
<defs>
<radialGradient gradientUnits="userSpaceOnUse" cx="15.9821" cy="16.8386" r="16.3929" fx="15.9821" fy="16.8386" id="gradient1">
    <stop offset="0" stop-color="#a4d662" stop-opacity="1" />
    <stop offset="0.298541" stop-color="#84c44e" stop-opacity="1" />
    <stop offset="0.694613" stop-color="#67ac3b" stop-opacity="1" />
    <stop offset="0.922408" stop-color="#407522" stop-opacity="0.878431" />
    <stop offset="1" stop-color="#000000" stop-opacity="0.756756" />
</radialGradient>
</defs>
<g fill="none" stroke="black" stroke-width="1" fill-rule="evenodd" stroke-linecap="square" stroke-linejoin="bevel" >

<g fill="#000000" fill-opacity="1" stroke="none" transform="matrix(2.27273,0,0,2.27273,-429.395,-325.526)"
font-family="Noto Sans" font-size="10" font-weight="400" font-style="normal" 
opacity="0.00100002" >
<rect x="188.934" y="143.232" width="22" height="22"/>
</g>

<g fill="url(#gradient1)" stroke="none" transform="matrix(2.27273,0,0,2.27273,-429.395,-325.526)"
font-family="Noto Sans" font-size="10" font-weight="400" font-style="normal" 
>
<circle cx="199.934" cy="154.232" r="10"/>
</g>

<g fill="#ffffff" fill-opacity="1" stroke="none" transform="matrix(2.27273,0,0,2.27273,-429.395,-325.526)"
font-family="Noto Sans" font-size="10" font-weight="400" font-style="normal" 
>
<path vector-effect="none" fill-rule="evenodd" d="M199.927,149.732 C199.916,149.732 199.905,149.732 199.893,149.734 C199.812,149.743 199.739,149.769 199.682,149.809 L195.042,153.274 C194.974,153.324 194.936,153.392 194.935,153.463 C194.935,153.534 194.972,153.602 195.041,153.653 C195.109,153.703 195.2,153.73 195.295,153.73 L204.573,153.73 C204.668,153.73 204.76,153.704 204.827,153.653 C204.896,153.602 204.934,153.534 204.934,153.463 C204.934,153.392 204.895,153.324 204.827,153.274 L200.186,149.809 C200.117,149.757 200.025,149.731 199.929,149.732 L199.927,149.732"/>
</g>

<g fill="#ffffff" fill-opacity="1" stroke="none" transform="matrix(2.27273,0,0,2.27273,-429.395,-325.526)"
font-family="Noto Sans" font-size="10" font-weight="400" font-style="normal" 
>
<path vector-effect="none" fill-rule="evenodd" d="M199.939,159.732 C199.951,159.731 199.962,159.731 199.973,159.73 C200.053,159.721 200.127,159.695 200.184,159.654 L204.824,156.189 C204.892,156.139 204.93,156.071 204.931,156 C204.931,155.929 204.893,155.861 204.826,155.811 C204.758,155.76 204.667,155.733 204.572,155.734 L195.294,155.734 C195.199,155.733 195.107,155.76 195.039,155.811 C194.971,155.861 194.933,155.929 194.934,156 C194.934,156.072 194.973,156.139 195.041,156.189 L199.682,159.654 C199.75,159.706 199.842,159.733 199.939,159.731 L199.939,159.732"/>
</g>

<g fill="none" stroke="#000000" stroke-opacity="1" stroke-width="1" stroke-linecap="square" stroke-linejoin="bevel" transform="matrix(1,0,0,1,0,0)"
font-family="Noto Sans" font-size="10" font-weight="400" font-style="normal" 
>
</g>
</g>
</svg>
