<?xml version="1.0" encoding="UTF-8" standalone="no"?>
<svg viewBox="0 0 50 50"
 xmlns="http://www.w3.org/2000/svg" xmlns:xlink="http://www.w3.org/1999/xlink" version="1.2" baseProfile="tiny">
<title>Qt SVG Document</title>
<desc>Generated with Qt</desc>
<defs>
<radialGradient gradientUnits="userSpaceOnUse" cx="15.9821" cy="16.8386" r="16.3929" fx="15.9821" fy="16.8386" id="gradient1">
    <stop offset="0" stop-color="#a4d662" stop-opacity="1" />
    <stop offset="0.298541" stop-color="#84c44e" stop-opacity="1" />
    <stop offset="0.694613" stop-color="#67ac3b" stop-opacity="1" />
    <stop offset="0.922408" stop-color="#407522" stop-opacity="0.878431" />
    <stop offset="1" stop-color="#000000" stop-opacity="0.756756" />
</radialGradient>
</defs>
<g fill="none" stroke="black" stroke-width="1" fill-rule="evenodd" stroke-linecap="square" stroke-linejoin="bevel" >

<g fill="#000000" fill-opacity="1" stroke="none" transform="matrix(2.27273,0,0,2.27273,-481.668,-350)"
font-family="Noto Sans" font-size="10" font-weight="400" font-style="normal" 
opacity="0.00100002" >
<rect x="211.934" y="154" width="22" height="22"/>
</g>

<g fill="url(#gradient1)" stroke="none" transform="matrix(2.27273,0,0,2.27273,-481.668,-350)"
font-family="Noto Sans" font-size="10" font-weight="400" font-style="normal" 
>
<circle cx="222.934" cy="165" r="10"/>
</g>

<g fill="#ffffff" fill-opacity="1" stroke="none" transform="matrix(2.27273,0,0,2.27273,-481.668,-350)"
font-family="Noto Sans" font-size="10" font-weight="400" font-style="normal" 
>
<path vector-effect="none" fill-rule="nonzero" d="M223.786,169.63 L223.804,166.38 L227.054,166.398 C227.537,166.401 227.931,166.011 227.934,165.528 C227.936,165.045 227.547,164.651 227.064,164.648 L223.814,164.63 L223.833,161.38 C223.836,160.897 223.446,160.503 222.963,160.5 C222.479,160.497 222.085,160.887 222.083,161.37 L222.064,164.62 L218.814,164.602 C218.331,164.599 217.937,164.989 217.934,165.472 C217.933,165.713 218.029,165.933 218.187,166.092 C218.344,166.251 218.563,166.35 218.804,166.352 L222.054,166.37 L222.036,169.62 C222.035,169.862 222.131,170.081 222.289,170.24 C222.446,170.4 222.665,170.498 222.906,170.5 C223.389,170.503 223.783,170.113 223.786,169.63 L223.786,169.63"/>
</g>

<g fill="none" stroke="#000000" stroke-opacity="1" stroke-width="1" stroke-linecap="square" stroke-linejoin="bevel" transform="matrix(1,0,0,1,0,0)"
font-family="Noto Sans" font-size="10" font-weight="400" font-style="normal" 
>
</g>
</g>
</svg>
