<?xml version="1.0" encoding="UTF-8" standalone="no"?>
<svg viewBox="0 0 50 50"
 xmlns="http://www.w3.org/2000/svg" xmlns:xlink="http://www.w3.org/1999/xlink" version="1.2" baseProfile="tiny">
<title>Qt SVG Document</title>
<desc>Generated with Qt</desc>
<defs>
<radialGradient gradientUnits="userSpaceOnUse" cx="15.9821" cy="16.8386" r="16.3929" fx="15.9821" fy="16.8386" id="gradient1">
    <stop offset="0" stop-color="#a4d662" stop-opacity="1" />
    <stop offset="0.298541" stop-color="#84c44e" stop-opacity="1" />
    <stop offset="0.694613" stop-color="#67ac3b" stop-opacity="1" />
    <stop offset="0.922408" stop-color="#407522" stop-opacity="0.878431" />
    <stop offset="1" stop-color="#000000" stop-opacity="0.756756" />
</radialGradient>
</defs>
<g fill="none" stroke="black" stroke-width="1" fill-rule="evenodd" stroke-linecap="square" stroke-linejoin="bevel" >

<g fill="#000000" fill-opacity="1" stroke="none" transform="matrix(2.27273,0,0,2.27273,-363.486,-325.526)"
font-family="Noto Sans" font-size="10" font-weight="400" font-style="normal" 
opacity="0.00100002" >
<rect x="159.934" y="143.232" width="22" height="22"/>
</g>

<g fill="url(#gradient1)" stroke="none" transform="matrix(2.27273,0,0,2.27273,-363.486,-325.526)"
font-family="Noto Sans" font-size="10" font-weight="400" font-style="normal" 
>
<circle cx="170.934" cy="154.232" r="10"/>
</g>

<g fill="#000000" fill-opacity="1" stroke="none" transform="matrix(2.27273,0,0,2.27273,-363.486,-325.526)"
font-family="Noto Sans" font-size="10" font-weight="400" font-style="normal" 
>
<path vector-effect="none" fill-rule="evenodd" d="M170.927,150.232 C170.916,150.232 170.905,150.232 170.893,150.234 C170.812,150.243 170.739,150.269 170.682,150.309 L166.042,153.774 C165.974,153.824 165.935,153.892 165.935,153.963 C165.934,154.034 165.972,154.102 166.041,154.153 C166.109,154.203 166.2,154.23 166.295,154.23 L175.573,154.23 C175.668,154.23 175.76,154.204 175.827,154.153 C175.895,154.102 175.934,154.034 175.934,153.963 C175.933,153.892 175.895,153.824 175.826,153.774 L171.186,150.309 C171.117,150.257 171.025,150.231 170.929,150.232 L170.927,150.232"/>
</g>

<g fill="#000000" fill-opacity="1" stroke="none" transform="matrix(2.27273,0,0,2.27273,-363.486,-325.526)"
font-family="Noto Sans" font-size="10" font-weight="400" font-style="normal" 
>
<path vector-effect="none" fill-rule="evenodd" d="M170.939,160.232 C170.951,160.231 170.962,160.231 170.973,160.23 C171.053,160.221 171.127,160.195 171.184,160.154 L175.824,156.689 C175.892,156.639 175.93,156.571 175.931,156.5 C175.931,156.429 175.893,156.361 175.825,156.311 C175.757,156.26 175.667,156.233 175.571,156.234 L166.293,156.234 C166.199,156.233 166.107,156.26 166.039,156.311 C165.971,156.361 165.933,156.429 165.934,156.5 C165.934,156.572 165.973,156.639 166.041,156.689 L170.681,160.154 C170.75,160.206 170.842,160.233 170.939,160.231 L170.939,160.232"/>
</g>

<g fill="none" stroke="#000000" stroke-opacity="1" stroke-width="1" stroke-linecap="square" stroke-linejoin="bevel" transform="matrix(1,0,0,1,0,0)"
font-family="Noto Sans" font-size="10" font-weight="400" font-style="normal" 
>
</g>
</g>
</svg>
