<?xml version="1.0" encoding="UTF-8" standalone="no"?>
<svg viewBox="0 0 50 50"
 xmlns="http://www.w3.org/2000/svg" xmlns:xlink="http://www.w3.org/1999/xlink" version="1.2" baseProfile="tiny">
<title>Qt SVG Document</title>
<desc>Generated with Qt</desc>
<defs>
<radialGradient gradientUnits="userSpaceOnUse" cx="15.9821" cy="16.8386" r="16.3929" fx="15.9821" fy="16.8386" id="gradient1">
    <stop offset="0" stop-color="#fee171" stop-opacity="1" />
    <stop offset="0.298541" stop-color="#ffb633" stop-opacity="1" />
    <stop offset="0.694613" stop-color="#fea01b" stop-opacity="1" />
    <stop offset="0.922408" stop-color="#c3621a" stop-opacity="0.878431" />
    <stop offset="1" stop-color="#000000" stop-opacity="0.756756" />
</radialGradient>
</defs>
<g fill="none" stroke="black" stroke-width="1" fill-rule="evenodd" stroke-linecap="square" stroke-linejoin="bevel" >

<g fill="#000000" fill-opacity="1" stroke="none" transform="matrix(2.27273,0,0,2.27273,-418.031,-350)"
font-family="Noto Sans" font-size="10" font-weight="400" font-style="normal" 
opacity="0.00100002" >
<rect x="183.934" y="154" width="22" height="22"/>
</g>

<g fill="url(#gradient1)" stroke="none" transform="matrix(2.27273,0,0,2.27273,-418.031,-350)"
font-family="Noto Sans" font-size="10" font-weight="400" font-style="normal" 
>
<circle cx="194.934" cy="165" r="10"/>
</g>

<g fill="#ffffff" fill-opacity="1" stroke="none" transform="matrix(2.27273,0,0,2.27273,-438.636,-343.182)"
font-family="Noto Sans" font-size="10" font-weight="400" font-style="normal" 
>
<path vector-effect="none" fill-rule="evenodd" d="M199,163 C199,162.448 199.448,162 200,162 L208,162 C208.552,162 209,162.448 209,163 C209,163.552 208.552,164 208,164 L200,164 C199.448,164 199,163.552 199,163 "/>
</g>

<g fill="none" stroke="#000000" stroke-opacity="1" stroke-width="1" stroke-linecap="square" stroke-linejoin="bevel" transform="matrix(1,0,0,1,0,0)"
font-family="Noto Sans" font-size="10" font-weight="400" font-style="normal" 
>
</g>
</g>
</svg>
